# xmcd
#
# Track frame offsets:
#	150
#	14950
#	27411
#	44184
#	57274
#	68797
#	83658
#	97510
#	108745
#	120426
#	131045
#	147140
#	163353
#	177468
#	198314
#	215640
#	225911
#	239224
#	252457
#	262643
#
# Disc length: 3683 seconds
#
# Revision: 0
# Processed by: cddbd v1.5.1PL0 Copyright (c) Steve Scherf et al.
# Submitted via: audiograbber 1.83.01
#
DISCID=280e6114
DTITLE=Various Artist - Rhinestone Cowboy - 20 Country Classics
DYEAR=1997
DGENRE=Country
TTITLE0=Glenn Cambell - Rhinestone Cowboy
TTITLE1=Johnny Cash - Ring of Fire
TTITLE2=Don McLean - Crying
TTITLE3=Dr. Hook - A Little bit More
TTITLE4=Crystal Gayle - Don't it Make my Brown Eyes Blue
TTITLE5=Olivia Newton-John - Banks of the Ohio
TTITLE6=Willie Nelson - Funny How Time Slips Away
TTITLE7=Roger Miller - King of the Road
TTITLE8=Bobby Gentry and Glenn Cambell - All I have to do is Dream
TTITLE9=Slim Whitman - Rose Marie
TTITLE10=Billie Jo Spears - Blanket on the Ground
TTITLE11=Rita Coolidge - We're all Alone
TTITLE12=Suzy Bogguss - Under the Gun
TTITLE13=Pussycat - Mississippi
TTITLE14=C.W.McCall - Convoy
TTITLE15=Dave Dudley - Six days on the Road
TTITLE16=Faron Young - It's Four in the Morning
TTITLE17=Tania Tucker - San Antonio Stroll
TTITLE18=Conway Twitty - It's Only Make Believe
TTITLE19=Jerry Lee Lewis - Release Me
EXTD=This is a Compilation disc now with Artist's names added
EXTT0=
EXTT1=
EXTT2=
EXTT3=
EXTT4=
EXTT5=
EXTT6=
EXTT7=
EXTT8=
EXTT9=
EXTT10=
EXTT11=
EXTT12=
EXTT13=
EXTT14=
EXTT15=
EXTT16=
EXTT17=
EXTT18=
EXTT19=
PLAYORDER=
